<?xml version="1.0" encoding="UTF-8" standalone="no"?>
<!-- Created with Inkscape (http://www.inkscape.org/) -->

<svg
   version="1.1"
   id="svg1"
   width="242.68668"
   height="121.476"
   viewBox="0 0 242.68668 121.476"
   xmlns="http://www.w3.org/2000/svg"
   xmlns:svg="http://www.w3.org/2000/svg">
  <defs
     id="defs1" />
  <g
     id="g1">
    <path
       id="path1"
       d="m 158.74211,0 c 0,25.0491 -40.61149,45.35486 -90.70973,45.35486 -50.09825,0 -90.70973,-20.30576 -90.70973,-45.35486 0,-25.0491 40.61148,-45.35486 90.70973,-45.35486 50.09824,0 90.70973,20.30576 90.70973,45.35486 z"
       style="fill:#f2f2f2;fill-opacity:1;fill-rule:nonzero;stroke:#999999;stroke-width:0.3985;stroke-linecap:butt;stroke-linejoin:miter;stroke-miterlimit:10;stroke-dasharray:none;stroke-opacity:1"
       transform="matrix(1.3333333,0,0,-1.3333333,30.768,60.737333)" />
    <path
       id="path2"
       d="m 113.38725,0 c 0,18.78679 -30.45868,34.0161 -68.03241,34.0161 C 7.7811,34.0161 -22.67755,18.78679 -22.67755,0 c 0,-18.78679 30.45865,-34.0161 68.03239,-34.0161 37.57373,0 68.03241,15.22931 68.03241,34.0161 z"
       style="fill:#e6e6e6;fill-opacity:1;fill-rule:nonzero;stroke:#999999;stroke-width:0.3985;stroke-linecap:butt;stroke-linejoin:miter;stroke-miterlimit:10;stroke-dasharray:none;stroke-opacity:1"
       transform="matrix(1.3333333,0,0,-1.3333333,30.768,60.737333)" />
    <path
       id="path3"
       d="m 68.03238,0 c 0,12.5246 -20.30576,22.67754 -45.35486,22.67754 -25.0491,0 -45.35486,-10.15294 -45.35486,-22.67754 0,-12.5246 20.30576,-22.67754 45.35486,-22.67754 25.0491,0 45.35486,10.15294 45.35486,22.67754 z"
       style="fill:#d9d9d9;fill-opacity:1;fill-rule:nonzero;stroke:#999999;stroke-width:0.79701;stroke-linecap:butt;stroke-linejoin:miter;stroke-miterlimit:10;stroke-dasharray:0.79701, 1.99255;stroke-dashoffset:0;stroke-opacity:1"
       transform="matrix(1.3333333,0,0,-1.3333333,30.768,60.737333)" />
    <path
       id="path4"
       d="M 22.67754,0 C 22.67754,6.2623 12.5246,11.33876 0,11.33876 -12.5246,11.33876 -22.67754,6.2623 -22.67754,0 c 0,-6.2623 10.15294,-11.33876 22.67754,-11.33876 12.5246,0 22.67754,5.07646 22.67754,11.33876 z"
       style="fill:#cccccc;fill-opacity:1;fill-rule:nonzero;stroke:#999999;stroke-width:0.3985;stroke-linecap:butt;stroke-linejoin:miter;stroke-miterlimit:10;stroke-dasharray:none;stroke-opacity:1"
       transform="matrix(1.3333333,0,0,-1.3333333,30.768,60.737333)" />
    <g
       id="g4"
       aria-label="ω&#10;c&#10;(G)"
       transform="matrix(0.66666667,0,0,0.66666667,21.660667,62.468)">
      <path
         id="path5"
         d="m 2.2492344,-4.8035625 c -0.2578125,0.1875 -0.7265625,0.515625 -0.984375,0.75 -0.72656253,0.6796875 -1.12500003,1.546875 -1.12500003,2.296875 0,0.5859375 0.046875,1.078125 0.375,1.4765625 0.2109375,0.2578125 0.4453125,0.3984375 0.82031253,0.3984375 0.28125,0 0.65625,-0.1640625 0.9375,-0.328125 0.375,-0.2109375 0.5859375,-0.421875 0.9375,-0.703125 0.09375,0.609375 0.515625,1.03125 1.078125,1.03125 0.421875,0 0.84375,-0.2109375 1.3125,-0.65625 0.4453125,-0.3984375 0.8671875,-1.03125 1.171875,-1.6640625 0.234375,-0.515625 0.3984375,-1.1953125 0.3984375,-1.6171875 0,-0.5859375 -0.234375,-0.984375 -0.609375,-0.984375 -0.140625,0 -0.234375,0.046875 -0.328125,0.1171875 l -0.4921875,0.46875 0.09375,0.1875 c 0.09375,-0.046875 0.1875,-0.09375 0.28125,-0.09375 0.28125,0 0.421875,0.234375 0.421875,0.6328125 0,1.5 -0.9609375,3.09375 -1.828125,3.09375 -0.4921875,0 -0.796875,-0.3984375 -0.796875,-1.0546875 0,-0.140625 0,-0.28125 0.046875,-0.5390625 l 0.1875,-0.7734375 c 0.046875,-0.1640625 0.09375,-0.3046875 0.1640625,-0.46875 l -0.1171875,-0.140625 -0.6328125,0.2578125 -0.28125,1.21875 c -0.1171875,0.328125 -0.2109375,0.75 -0.4921875,1.0078125 -0.28125,0.234375 -0.5859375,0.3984375 -0.9140625,0.3984375 -0.28125,0 -0.5390625,-0.140625 -0.703125,-0.328125 -0.21093753,-0.234375 -0.25781253,-0.5859375 -0.25781253,-0.890625 0,-0.9140625 0.23437503,-1.734375 1.07812503,-2.53125 0.1171875,-0.09375 0.3046875,-0.28125 0.3984375,-0.375 z m 0,0"
         style="fill:#000000;fill-opacity:1;fill-rule:nonzero;stroke:none" />
      <path
         id="path6"
         d="m 10.159391,-1.0125469 h 0.1875 c 0.04687,-0.4921875 0.117187,-0.7734375 0.1875,-0.9609375 -0.1875,-0.1171875 -0.445313,-0.1875 -0.7265629,-0.1875 -0.3515625,0 -0.9140625,0.28125 -1.3359375,0.65625 -0.421875,0.375 -0.703125,1.17187502 -0.703125,1.96875002 0,0.72656248 0.328125,1.12499998 0.9140625,1.12499998 0.421875,0 0.7734375,-0.1640625 1.1953125,-0.4921875 l 0.3750004,-0.32812498 -0.04687,-0.140625 -0.117188,0.0703125 C 9.5500156,1.0733906 9.2453281,1.1905781 8.9875156,1.1905781 c -0.421875,0 -0.6328125,-0.30468748 -0.6328125,-0.89062498 0,-0.8203125 0.2578125,-1.61718752 0.6328125,-1.89843752 0.1640625,-0.1171875 0.328125,-0.1875 0.5625,-0.1875 0.3515625,0 0.6093754,0.140625 0.6093754,0.328125 z m 0,0"
         style="fill:#000000;fill-opacity:1;fill-rule:nonzero;stroke:none" />
      <path
         id="path7"
         d="m 14.823453,2.4855 c 0,-0.023437 0,-0.046875 -0.1875,-0.2109375 -1.289062,-1.3125 -1.617187,-3.28125 -1.617187,-4.875 0,-1.8046875 0.375,-3.609375 1.664062,-4.8984375 0.140625,-0.140625 0.140625,-0.140625 0.140625,-0.1875 0,-0.070312 -0.04687,-0.09375 -0.117187,-0.09375 -0.09375,0 -1.03125,0.703125 -1.640625,2.015625 -0.539063,1.1484375 -0.65625,2.296875 -0.65625,3.1640625 0,0.8203125 0.117187,2.0625 0.679687,3.234375 0.632813,1.2890625 1.523438,1.96875 1.617188,1.96875 0.07031,0 0.117187,-0.046875 0.117187,-0.1171875 z m 0,0"
         style="fill:#000000;fill-opacity:1;fill-rule:nonzero;stroke:none" />
      <path
         id="path8"
         d="m 21.005094,-0.60825 c -0.445313,0.2578125 -0.820313,0.3515625 -1.359375,0.3515625 -1.664063,0 -2.507813,-0.9375 -2.507813,-2.6953125 0,-1.171875 0.351563,-2.1796875 0.984375,-2.8125 0.492188,-0.4921875 1.125,-0.75 1.945313,-0.75 0.773437,0 1.3125,0.140625 1.875,0.515625 v 0.8203125 h 0.257812 c 0.07031,-0.5625 0.140625,-0.984375 0.28125,-1.453125 -0.820312,-0.28125 -1.40625,-0.3984375 -2.085937,-0.3984375 -0.914063,0 -1.640625,0.234375 -2.367188,0.7265625 -1.148437,0.84375 -1.78125,2.0859375 -1.78125,3.5859375 0,1.8515625 1.101563,2.90625 3.046875,2.90625 0.539063,0 1.054688,-0.09375 1.664063,-0.3046875 l 0.304687,-0.09375 c 0.257813,-0.09375 0.421875,-0.140625 0.539063,-0.1640625 l 0.04687,-0.0703125 c -0.02344,-0.140625 -0.02344,-0.2109375 -0.02344,-0.28125 0,-0.0234375 0,-0.0703125 0,-0.1171875 l 0.234375,-1.3359375 c 0.02344,-0.09375 0.140625,-0.1875 0.28125,-0.2109375 l 0.304688,-0.070312 0.02344,-0.2578125 c -0.398437,0.023437 -0.726562,0.046875 -1.242187,0.046875 -0.515625,0 -0.867188,-0.023437 -1.289063,-0.046875 l -0.04687,0.2578125 0.328125,0.023437 c 0.75,0.046875 0.84375,0.09375 0.84375,0.328125 0,0.140625 -0.02344,0.3515625 -0.07031,0.5859375 z m 0,0"
         style="fill:#000000;fill-opacity:1;fill-rule:nonzero;stroke:none" />
      <path
         id="path9"
         d="m 26.296109,-2.6004375 c 0,-0.796875 -0.117187,-2.0625 -0.679687,-3.234375 -0.632813,-1.265625 -1.523438,-1.9453125 -1.617188,-1.9453125 -0.07031,0 -0.117187,0.046875 -0.117187,0.09375 0,0.046875 0,0.046875 0.210937,0.234375 1.007813,1.03125 1.59375,2.6953125 1.59375,4.8515625 0,1.78125 -0.375,3.609375 -1.664062,4.921875 -0.140625,0.1171875 -0.140625,0.140625 -0.140625,0.1640625 0,0.070312 0.04687,0.1171875 0.117187,0.1171875 0.09375,0 1.03125,-0.703125 1.640625,-2.0390625 0.539063,-1.125 0.65625,-2.296875 0.65625,-3.1640625 z m 0,0"
         style="fill:#000000;fill-opacity:1;fill-rule:nonzero;stroke:none" />
    </g>
    <path
       id="path10"
       d="m 4.1257031,-5.3919531 c 0,-0.609375 -0.515625,-1.125 -1.125,-1.125 -0.6328125,0 -1.1484375,0.515625 -1.1484375,1.125 0,0.6328125 0.515625,1.1484375 1.1484375,1.1484375 0.609375,0 1.125,-0.515625 1.125,-1.1484375 z m 9.9433599,0 c 0,-0.609375 -0.515625,-1.125 -1.125,-1.125 -0.632813,0 -1.148438,0.515625 -1.148438,1.125 0,0.6328125 0.515625,1.1484375 1.148438,1.1484375 0.609375,0 1.125,-0.515625 1.125,-1.1484375 z m 9.919921,0 c 0,-0.609375 -0.515625,-1.125 -1.125,-1.125 -0.632812,0 -1.148437,0.515625 -1.148437,1.125 0,0.6328125 0.515625,1.1484375 1.148437,1.1484375 0.609375,0 1.125,-0.515625 1.125,-1.1484375 z m 0,0"
       style="fill:#000000;fill-opacity:1;fill-rule:nonzero;stroke:none"
       aria-label="···"
       transform="matrix(0.66666667,0,0,0.66666667,81.48,63.926667)" />
    <g
       id="g10"
       aria-label="ω&#10;2&#10;c&#10;(G)"
       transform="matrix(0.66666667,0,0,0.66666667,142.35067,62.8)">
      <path
         id="path11"
         d="m 2.2513438,-4.8035156 c -0.2578125,0.1875 -0.7265625,0.515625 -0.984375,0.75 -0.72656255,0.6796875 -1.12500005,1.546875 -1.12500005,2.296875 0,0.5859375 0.046875,1.07812497 0.375,1.47656247 0.2109375,0.2578125 0.4453125,0.3984375 0.82031255,0.3984375 0.28125,0 0.65625,-0.1640625 0.9375,-0.328125 0.375,-0.2109375 0.5859375,-0.421875 0.9375,-0.703125 0.09375,0.609375 0.515625,1.03125 1.078125,1.03125 0.421875,0 0.84375,-0.2109375 1.3125,-0.65625 0.4453125,-0.3984375 0.8671875,-1.03124997 1.171875,-1.66406247 0.234375,-0.515625 0.3984375,-1.1953125 0.3984375,-1.6171875 0,-0.5859375 -0.234375,-0.984375 -0.609375,-0.984375 -0.140625,0 -0.234375,0.046875 -0.328125,0.1171875 l -0.4921875,0.46875 0.09375,0.1875 c 0.09375,-0.046875 0.1875,-0.09375 0.28125,-0.09375 0.28125,0 0.421875,0.234375 0.421875,0.6328125 0,1.5 -0.9609375,3.09374997 -1.828125,3.09374997 -0.4921875,0 -0.796875,-0.3984375 -0.796875,-1.05468747 0,-0.140625 0,-0.28125 0.046875,-0.5390625 l 0.1875,-0.7734375 c 0.046875,-0.1640625 0.09375,-0.3046875 0.1640625,-0.46875 l -0.1171875,-0.140625 -0.6328125,0.2578125 -0.28125,1.21875 c -0.1171875,0.328125 -0.2109375,0.75 -0.4921875,1.00781247 -0.28125,0.234375 -0.5859375,0.3984375 -0.9140625,0.3984375 -0.28125,0 -0.5390625,-0.140625 -0.703125,-0.328125 C 0.96228125,-1.0535156 0.91540625,-1.4050781 0.91540625,-1.7097656 c 0,-0.9140625 0.23437505,-1.734375 1.07812505,-2.53125 0.1171875,-0.09375 0.3046875,-0.28125 0.3984375,-0.375 z m 0,0"
         style="fill:#000000;fill-opacity:1;fill-rule:nonzero;stroke:none" />
      <path
         id="path12"
         d="m 7.8529063,-3.778125 v 0.1875 c 1.4296875,-0.023437 1.4296875,-0.023437 1.6875,-0.023437 0.28125,0 0.28125,0 1.7343747,0.023437 0,-0.1640625 0,-0.234375 0,-0.3515625 0,-0.09375 0,-0.1640625 0,-0.328125 -0.867187,0.046875 -1.21875,0.046875 -2.6249997,0.070312 l 1.3828127,-1.453125 c 0.75,-0.7734375 0.960937,-1.1953125 0.960937,-1.7578125 0,-0.890625 -0.585937,-1.4296875 -1.5468747,-1.4296875 -0.5390625,0 -0.9140625,0.1640625 -1.2890625,0.5390625 l -0.1171875,1.03125 h 0.2109375 l 0.09375,-0.3515625 C 8.4622813,-8.067188 8.7435313,-8.254688 9.2591563,-8.254688 c 0.6328125,0 1.0546877,0.421875 1.0546877,1.0546875 0,0.5625 -0.304688,1.125 -1.1718752,2.0390625 z m 0,0"
         style="fill:#000000;fill-opacity:1;fill-rule:nonzero;stroke:none" />
      <path
         id="path13"
         d="m 10.1615,-0.04570313 h 0.1875 c 0.04687,-0.4921875 0.117188,-0.7734375 0.1875,-0.96093747 -0.1875,-0.1171875 -0.445312,-0.1875 -0.7265625,-0.1875 -0.3515625,0 -0.9140625,0.28124997 -1.3359375,0.65624997 -0.421875,0.375 -0.703125,1.171875 -0.703125,1.96875003 0,0.7265625 0.328125,1.125 0.9140625,1.125 0.421875,0 0.7734375,-0.1640625 1.1953125,-0.4921875 l 0.375,-0.328125 -0.04687,-0.140625 -0.117187,0.070312 c -0.539063,0.375 -0.8437505,0.4921875 -1.101563,0.4921875 -0.421875,0 -0.6328125,-0.3046875 -0.6328125,-0.890625 0,-0.82031253 0.2578125,-1.61718753 0.6328125,-1.89843753 0.1640625,-0.1171875 0.328125,-0.1875 0.5625,-0.1875 0.3515625,0 0.609375,0.140625 0.609375,0.328125 z m 0,0"
         style="fill:#000000;fill-opacity:1;fill-rule:nonzero;stroke:none" />
      <path
         id="path14"
         d="m 15.593141,2.4855469 c 0,-0.023437 0,-0.046875 -0.1875,-0.2109375 -1.289063,-1.31250003 -1.617188,-3.28125 -1.617188,-4.875 0,-1.8046875 0.375,-3.609375 1.664063,-4.8984375 0.140625,-0.140625 0.140625,-0.140625 0.140625,-0.1875 0,-0.070312 -0.04687,-0.09375 -0.117188,-0.09375 -0.09375,0 -1.03125,0.703125 -1.640625,2.015625 -0.539062,1.1484375 -0.65625,2.296875 -0.65625,3.1640625 0,0.8203125 0.117188,2.06249997 0.679688,3.23437497 0.632812,1.28906253 1.523437,1.96875003 1.617187,1.96875003 0.07031,0 0.117188,-0.046875 0.117188,-0.1171875 z m 0,0"
         style="fill:#000000;fill-opacity:1;fill-rule:nonzero;stroke:none" />
      <path
         id="path15"
         d="m 21.768922,-0.60820313 c -0.445313,0.2578125 -0.820313,0.3515625 -1.359375,0.3515625 -1.664063,0 -2.507813,-0.93749997 -2.507813,-2.69531247 0,-1.171875 0.351563,-2.1796875 0.984375,-2.8125 0.492188,-0.4921875 1.125,-0.75 1.945313,-0.75 0.773437,0 1.3125,0.140625 1.875,0.515625 v 0.8203125 h 0.257812 c 0.07031,-0.5625 0.140625,-0.984375 0.28125,-1.453125 -0.820312,-0.28125 -1.40625,-0.3984375 -2.085937,-0.3984375 -0.914063,0 -1.640625,0.234375 -2.367188,0.7265625 -1.148437,0.84375 -1.78125,2.0859375 -1.78125,3.5859375 0,1.85156247 1.101563,2.90624997 3.046875,2.90624997 0.539063,0 1.054688,-0.09375 1.664063,-0.3046875 l 0.304687,-0.09375 c 0.257813,-0.09375 0.421875,-0.140625 0.539063,-0.1640625 l 0.04687,-0.0703125 c -0.02344,-0.140625 -0.02344,-0.2109375 -0.02344,-0.28125 0,-0.0234375 0,-0.0703125 0,-0.1171875 l 0.234375,-1.33593747 c 0.02344,-0.09375 0.140625,-0.1875 0.28125,-0.2109375 l 0.304688,-0.070312 0.02344,-0.2578125 c -0.398437,0.023437 -0.726562,0.046875 -1.242187,0.046875 -0.515625,0 -0.867188,-0.023437 -1.289063,-0.046875 l -0.04687,0.2578125 0.328125,0.023437 c 0.75,0.046875 0.84375,0.09375 0.84375,0.328125 0,0.140625 -0.02344,0.3515625 -0.07031,0.5859375 z m 0,0"
         style="fill:#000000;fill-opacity:1;fill-rule:nonzero;stroke:none" />
      <path
         id="path16"
         d="m 27.059938,-2.6003906 c 0,-0.796875 -0.117188,-2.0625 -0.679688,-3.234375 -0.632812,-1.265625 -1.523437,-1.9453125 -1.617187,-1.9453125 -0.07031,0 -0.117188,0.046875 -0.117188,0.09375 0,0.046875 0,0.046875 0.210938,0.234375 1.007812,1.03125 1.59375,2.6953125 1.59375,4.8515625 0,1.78124997 -0.375,3.609375 -1.664063,4.921875 -0.140625,0.1171875 -0.140625,0.140625 -0.140625,0.1640625 0,0.070312 0.04687,0.1171875 0.117188,0.1171875 0.09375,0 1.03125,-0.703125 1.640625,-2.03906253 0.539062,-1.125 0.65625,-2.29687497 0.65625,-3.16406247 z m 0,0"
         style="fill:#000000;fill-opacity:1;fill-rule:nonzero;stroke:none" />
    </g>
    <g
       id="g16"
       aria-label="ω&#10;1&#10;c&#10;(G)"
       transform="matrix(0.66666667,0,0,0.66666667,202.82333,62.838667)">
      <path
         id="path17"
         d="m 2.2513281,-4.8029219 c -0.2578125,0.1875 -0.7265625,0.515625 -0.984375,0.75 -0.72656248,0.6796875 -1.12499998,1.546875 -1.12499998,2.296875 0,0.5859375 0.046875,1.07812502 0.375,1.47656252 0.2109375,0.2578125 0.4453125,0.3984375 0.82031248,0.3984375 0.28125,0 0.65625,-0.1640625 0.9375,-0.328125 0.375,-0.2109375 0.5859375,-0.421875 0.9375,-0.703125 0.09375,0.609375 0.515625,1.03125 1.078125,1.03125 0.421875,0 0.84375,-0.2109375 1.3125,-0.65625 0.4453125,-0.3984375 0.8671875,-1.03125002 1.171875,-1.66406252 0.234375,-0.515625 0.3984375,-1.1953125 0.3984375,-1.6171875 0,-0.5859375 -0.234375,-0.984375 -0.609375,-0.984375 -0.140625,0 -0.234375,0.046875 -0.328125,0.1171875 l -0.4921875,0.46875 0.09375,0.1875 c 0.09375,-0.046875 0.1875,-0.09375 0.28125,-0.09375 0.28125,0 0.421875,0.234375 0.421875,0.6328125 0,1.5 -0.9609375,3.09375002 -1.828125,3.09375002 -0.4921875,0 -0.796875,-0.3984375 -0.796875,-1.05468752 0,-0.140625 0,-0.28125 0.046875,-0.5390625 l 0.1875,-0.7734375 c 0.046875,-0.1640625 0.09375,-0.3046875 0.1640625,-0.46875 l -0.1171875,-0.140625 -0.6328125,0.2578125 -0.28125,1.21875 c -0.1171875,0.328125 -0.2109375,0.75 -0.4921875,1.00781252 -0.28125,0.234375 -0.5859375,0.3984375 -0.9140625,0.3984375 -0.28125,0 -0.5390625,-0.140625 -0.703125,-0.328125 C 0.96226562,-1.0529219 0.91539062,-1.4044844 0.91539062,-1.7091719 c 0,-0.9140625 0.23437498,-1.734375 1.07812498,-2.53125 0.1171875,-0.09375 0.3046875,-0.28125 0.3984375,-0.375 z m 0,0"
         style="fill:#000000;fill-opacity:1;fill-rule:nonzero;stroke:none" />
      <path
         id="path18"
         d="m 8.2513281,-7.8146406 h 0.070312 l 0.984375,-0.4453125 c 0,0 0,0 0.023437,0 0.023437,0 0.046875,0.070312 0.046875,0.234375 v 3.6796875 c 0,0.3984375 -0.070312,0.46875 -0.4921875,0.4921875 l -0.421875,0.023437 v 0.234375 c 1.171875,-0.023437 1.171875,-0.023437 1.2421875,-0.023437 0.1171875,0 0.28125,0 0.5390629,0 0.07031,0.023437 0.351562,0.023437 0.65625,0.023437 v -0.234375 l -0.398438,-0.023437 c -0.421875,-0.023437 -0.492187,-0.09375 -0.492187,-0.4921875 v -4.5 l -0.09375,-0.023437 c -0.4921875,0.2578125 -1.03125,0.4921875 -1.734375,0.7265625 z m 0,0"
         style="fill:#000000;fill-opacity:1;fill-rule:nonzero;stroke:none" />
      <path
         id="path19"
         d="m 10.161484,-0.04510938 h 0.1875 c 0.04687,-0.4921875 0.117188,-0.7734375 0.1875,-0.96093752 -0.1875,-0.1171875 -0.445312,-0.1875 -0.7265621,-0.1875 -0.3515625,0 -0.9140625,0.28125002 -1.3359375,0.65625002 -0.421875,0.375 -0.703125,1.171875 -0.703125,1.96874998 0,0.7265625 0.328125,1.125 0.9140625,1.125 0.421875,0 0.7734375,-0.1640625 1.1953125,-0.4921875 l 0.3749996,-0.328125 -0.04687,-0.140625 -0.117187,0.070312 c -0.5390626,0.375 -0.8437501,0.4921875 -1.1015626,0.4921875 -0.421875,0 -0.6328125,-0.3046875 -0.6328125,-0.890625 0,-0.82031248 0.2578125,-1.61718748 0.6328125,-1.89843748 0.1640625,-0.1171875 0.328125,-0.1875 0.5625,-0.1875 0.3515625,0 0.6093746,0.140625 0.6093746,0.328125 z m 0,0"
         style="fill:#000000;fill-opacity:1;fill-rule:nonzero;stroke:none" />
      <path
         id="path20"
         d="m 15.587266,2.4861406 c 0,-0.023437 0,-0.046875 -0.1875,-0.2109375 -1.289063,-1.31249998 -1.617188,-3.28125 -1.617188,-4.875 0,-1.8046875 0.375,-3.609375 1.664063,-4.8984375 0.140625,-0.140625 0.140625,-0.140625 0.140625,-0.1875 0,-0.070312 -0.04687,-0.09375 -0.117188,-0.09375 -0.09375,0 -1.03125,0.703125 -1.640625,2.015625 -0.539062,1.1484375 -0.65625,2.296875 -0.65625,3.1640625 0,0.8203125 0.117188,2.06250002 0.679688,3.23437502 0.632812,1.28906248 1.523437,1.96874998 1.617187,1.96874998 0.07031,0 0.117188,-0.046875 0.117188,-0.1171875 z m 0,0"
         style="fill:#000000;fill-opacity:1;fill-rule:nonzero;stroke:none" />
      <path
         id="path21"
         d="m 21.768906,-0.60760938 c -0.445312,0.2578125 -0.820312,0.3515625 -1.359375,0.3515625 -1.664062,0 -2.507812,-0.93750002 -2.507812,-2.69531252 0,-1.171875 0.351562,-2.1796875 0.984375,-2.8125 0.492187,-0.4921875 1.125,-0.75 1.945312,-0.75 0.773438,0 1.3125,0.140625 1.875,0.515625 v 0.8203125 h 0.257813 c 0.07031,-0.5625 0.140625,-0.984375 0.28125,-1.453125 -0.820313,-0.28125 -1.40625,-0.3984375 -2.085938,-0.3984375 -0.914062,0 -1.640625,0.234375 -2.367187,0.7265625 -1.148438,0.84375 -1.78125,2.0859375 -1.78125,3.5859375 0,1.85156252 1.101562,2.90625002 3.046875,2.90625002 0.539062,0 1.054687,-0.09375 1.664062,-0.3046875 l 0.304688,-0.09375 c 0.257812,-0.09375 0.421875,-0.140625 0.539062,-0.1640625 l 0.04687,-0.0703125 c -0.02344,-0.140625 -0.02344,-0.2109375 -0.02344,-0.28125 0,-0.0234375 0,-0.0703125 0,-0.1171875 l 0.234375,-1.33593752 c 0.02344,-0.09375 0.140625,-0.1875 0.28125,-0.2109375 l 0.304687,-0.070312 0.02344,-0.2578125 c -0.398438,0.023437 -0.726563,0.046875 -1.242188,0.046875 -0.515625,0 -0.867187,-0.023437 -1.289062,-0.046875 l -0.04687,0.2578125 0.328125,0.023437 c 0.75,0.046875 0.84375,0.09375 0.84375,0.328125 0,0.140625 -0.02344,0.3515625 -0.07031,0.5859375 z m 0,0"
         style="fill:#000000;fill-opacity:1;fill-rule:nonzero;stroke:none" />
      <path
         id="path22"
         d="m 27.059922,-2.5997969 c 0,-0.796875 -0.117188,-2.0625 -0.679688,-3.234375 -0.632812,-1.265625 -1.523437,-1.9453125 -1.617187,-1.9453125 -0.07031,0 -0.117188,0.046875 -0.117188,0.09375 0,0.046875 0,0.046875 0.210938,0.234375 1.007812,1.03125 1.59375,2.6953125 1.59375,4.8515625 0,1.78125002 -0.375,3.609375 -1.664063,4.921875 -0.140625,0.1171875 -0.140625,0.140625 -0.140625,0.1640625 0,0.070312 0.04687,0.1171875 0.117188,0.1171875 0.09375,0 1.03125,-0.703125 1.640625,-2.03906248 0.539062,-1.125 0.65625,-2.29687502 0.65625,-3.16406252 z m 0,0"
         style="fill:#000000;fill-opacity:1;fill-rule:nonzero;stroke:none" />
    </g>
  </g>
</svg>
