<?xml version="1.0" encoding="UTF-8" standalone="no"?>
<!-- Created with Inkscape (http://www.inkscape.org/) -->

<svg
   version="1.1"
   id="svg1"
   width="499.31601"
   height="146.54266"
   viewBox="0 0 499.31601 146.54266"
   xmlns="http://www.w3.org/2000/svg"
   xmlns:svg="http://www.w3.org/2000/svg">
  <defs
     id="defs1" />
  <g
     id="g1">
    <path
       id="path1"
       d="M -42.52022,-42.52022 H 42.52022 V 42.52022 H -42.52022 Z"
       style="fill:none;stroke:#000000;stroke-width:0.3985;stroke-linecap:butt;stroke-linejoin:miter;stroke-miterlimit:10;stroke-dasharray:none;stroke-opacity:1"
       transform="matrix(1.3333333,0,0,-1.3333333,56.958667,89.584)" />
    <path
       id="path2"
       d="m 2.2609531,-3.1513203 h 1.6875 c 1.1953125,0 2.2617188,-0.796875 2.2617188,-1.7929688 0,-0.984375 -0.984375,-1.8632812 -2.34375,-1.8632812 H 0.35079688 v 0.3164062 h 0.234375 c 0.77343752,0 0.78515622,0.1054688 0.78515622,0.46875 v 5.25000004 c 0,0.3515625 -0.011719,0.46875 -0.78515622,0.46875 h -0.234375 v 0.3046875 c 0.3515625,-0.03515625 1.07812502,-0.03515625 1.46484372,-0.03515625 0.375,0 1.125,0 1.4765625,0.03515625 v -0.3046875 H 3.0461094 c -0.7617188,0 -0.7851563,-0.1171875 -0.7851563,-0.46875 z m -0.035156,-0.2578125 v -2.6835938 c 0,-0.328125 0.023437,-0.3984375 0.4921875,-0.3984375 h 0.890625 c 1.5820312,0 1.5820312,1.0546875 1.5820312,1.546875 0,0.4570313 0,1.5351563 -1.5820312,1.5351563 z m 6.2197265,0.1054687 v -1.1015625 l -1.3828125,0.1171875 v 0.3046875 c 0.6914063,0 0.7734375,0.070312 0.7734375,0.5625 v 2.66015629 c 0,0.45703125 -0.1054687,0.45703125 -0.7734375,0.45703125 v 0.3046875 c 0.3867188,-0.01171875 0.8554688,-0.03515625 1.1367188,-0.03515625 0.3984375,0 0.8671875,0 1.265625,0.03515625 v -0.3046875 H 9.2541172 c -0.7382813,0 -0.7617188,-0.1171875 -0.7617188,-0.46875 V -2.3075703 c 0,-0.984375 0.421875,-1.875 1.1835938,-1.875 0.058594,0 0.082031,0 0.1054687,0.011719 -0.035156,0.011719 -0.234375,0.1289063 -0.234375,0.3867188 0,0.28125 0.2109375,0.4335937 0.4335938,0.4335937 0.1757813,0 0.4218753,-0.1289062 0.4218753,-0.4453125 0,-0.3164062 -0.304688,-0.609375 -0.7265628,-0.609375 -0.7382813,0 -1.0898438,0.6679688 -1.2304686,1.1015622 z m 3.3515624,0.796875 c 0.05859,-1.4882812 0.902344,-1.734375 1.242187,-1.734375 1.019532,0 1.125,1.3476563 1.125,1.734375 z m -0.01172,0.2109375 h 2.789063 c 0.210937,0 0.246093,0 0.246093,-0.2109375 0,-0.984375 -0.539062,-1.9570312 -1.78125,-1.9570312 -1.160156,0 -2.074218,1.03125 -2.074218,2.2734375 0,1.33593749 1.042968,2.29687499 2.191406,2.29687499 1.21875,0 1.664062,-1.1015625 1.664062,-1.28906249 0,-0.1054688 -0.08203,-0.1171875 -0.128906,-0.1171875 -0.09375,0 -0.117187,0.058594 -0.128906,0.140625 -0.351563,1.01953124 -1.253906,1.01953124 -1.347656,1.01953124 -0.503907,0 -0.902344,-0.29296875 -1.125,-0.66796875 C 11.785367,-1.2880391 11.785367,-1.9442891 11.785366,-2.2958516 Z m 5.036133,-1.453125 v -0.65625 l -1.429687,0.1171875 v 0.3046875 c 0.703124,0 0.773437,0.058594 0.773437,0.4921875 v 4.6640625 c 0,0.4570313 -0.105469,0.4570313 -0.773437,0.4570313 v 0.3046875 c 0.339843,-0.011719 0.855468,-0.035156 1.113281,-0.035156 0.269531,0 0.773437,0.023437 1.125,0.035156 V 1.6299297 c -0.667969,0 -0.773438,0 -0.773438,-0.4570313 v -1.75781246 c 0.04687,0.15234375 0.46875,0.69140625 1.21875,0.69140625 1.183594,0 2.226563,-0.97265625 2.226563,-2.26171879 0,-1.265625 -0.972657,-2.25 -2.085938,-2.25 -0.773437,0 -1.195312,0.4453125 -1.394531,0.65625 z m 0.03516,2.6132813 v -2.2148438 c 0.28125,-0.515625 0.773438,-0.796875 1.277344,-0.796875 0.726562,0 1.335937,0.8671875 1.335937,1.9921875 0,1.20703129 -0.691406,2.05078129 -1.429687,2.05078129 -0.398438,0 -0.773438,-0.19921875 -1.042969,-0.609375 -0.140625,-0.2109375 -0.140625,-0.22265625 -0.140625,-0.42187499 z m 7.104492,0.37499999 c 0.03516,0.3984375 0.304688,0.8203125 0.773438,0.8203125 0.210937,0 0.820312,-0.140625 0.820312,-0.94921875 V -1.4403828 h -0.246093 v 0.55078124 c 0,0.5859375 -0.246094,0.64453125 -0.363282,0.64453125 -0.328125,0 -0.363281,-0.45703125 -0.363281,-0.50390625 V -2.7411641 c 0,-0.4101562 0,-0.8085937 -0.363281,-1.171875 -0.386719,-0.3867187 -0.878906,-0.5507812 -1.359375,-0.5507812 -0.820313,0 -1.511719,0.46875 -1.511719,1.125 0,0.3046875 0.199219,0.46875 0.457031,0.46875 0.28125,0 0.46875,-0.1992188 0.46875,-0.4570313 0,-0.1171875 -0.05859,-0.4453125 -0.515625,-0.4570312 0.269532,-0.3515625 0.761719,-0.4570313 1.078125,-0.4570313 0.492188,0 1.054688,0.3867188 1.054688,1.2773438 v 0.3632812 c -0.503906,0.035156 -1.207031,0.058594 -1.828125,0.3632813 -0.75,0.3398437 -0.996094,0.8554687 -0.996094,1.28906249 0,0.80859375 0.960938,1.0546875 1.59375,1.0546875 0.65625,0 1.113281,-0.3984375 1.300781,-0.8671875 z m -0.07031,-1.62890629 v 0.9960938 c 0,0.94921874 -0.714844,1.28906249 -1.160156,1.28906249 -0.492188,0 -0.902344,-0.3515625 -0.902344,-0.85546875 0,-0.53906254 0.421875,-1.37109374 2.0625,-1.42968754 z m 3.401367,-0.9140625 v -1.1015625 l -1.382812,0.1171875 v 0.3046875 c 0.691406,0 0.773437,0.070312 0.773437,0.5625 v 2.66015629 c 0,0.45703125 -0.105469,0.45703125 -0.773437,0.45703125 v 0.3046875 c 0.386718,-0.01171875 0.855468,-0.03515625 1.136718,-0.03515625 0.398438,0 0.867188,0 1.265625,0.03515625 v -0.3046875 h -0.210937 c -0.738281,0 -0.761719,-0.1171875 -0.761719,-0.46875 V -2.3075703 c 0,-0.984375 0.421875,-1.875 1.183594,-1.875 0.05859,0 0.08203,0 0.105469,0.011719 -0.03516,0.011719 -0.234375,0.1289063 -0.234375,0.3867188 0,0.28125 0.210937,0.4335937 0.433593,0.4335937 0.175782,0 0.421875,-0.1289062 0.421875,-0.4453125 0,-0.3164062 -0.304687,-0.609375 -0.726562,-0.609375 -0.738281,0 -1.089844,0.6679688 -1.230469,1.1015622 z m 3.351563,0.796875 c 0.05859,-1.4882812 0.902343,-1.734375 1.242187,-1.734375 1.019531,0 1.125,1.3476563 1.125,1.734375 z m -0.01172,0.2109375 h 2.789062 c 0.210938,0 0.246094,0 0.246094,-0.2109375 0,-0.984375 -0.539062,-1.9570312 -1.78125,-1.9570312 -1.160156,0 -2.074219,1.03125 -2.074219,2.2734375 0,1.33593749 1.042969,2.29687499 2.191407,2.29687499 1.21875,0 1.664062,-1.1015625 1.664062,-1.28906249 0,-0.1054688 -0.08203,-0.1171875 -0.128906,-0.1171875 -0.09375,0 -0.117188,0.058594 -0.128906,0.140625 -0.351563,1.01953124 -1.253907,1.01953124 -1.347657,1.01953124 -0.503906,0 -0.902343,-0.29296875 -1.125,-0.66796875 C 30.632047,-1.2880391 30.632047,-1.9442891 30.632047,-2.2958516 Z m 0,0"
       style="fill:#000000;fill-opacity:1;fill-rule:nonzero;stroke:none"
       aria-label="Prepare"
       transform="matrix(1.3333333,0,0,1.3333333,34.321333,92.830667)" />
    <path
       id="path3"
       d="M 82.00836,-42.51141 42.54785,-19.73024 V 19.73024 L 82.00836,42.51141 Z"
       style="fill:none;stroke:#000000;stroke-width:0.3985;stroke-linecap:butt;stroke-linejoin:miter;stroke-miterlimit:10;stroke-dasharray:none;stroke-opacity:1"
       transform="matrix(1.3333333,0,0,-1.3333333,56.958667,89.584)" />
    <path
       id="path4"
       d="m 7.5009531,-14.274492 c -0.1054687,-0.269531 -0.140625,-0.328125 -0.3515625,-0.328125 -0.2109375,0 -0.2460937,0.05859 -0.3515625,0.328125 L 2.4150156,-1.8760547 c -0.3867187,1.11328126 -1.21875,1.33593751 -1.93359373,1.33593751 v 0.5390625 c 0.36328125,-0.046875 1.19531253,-0.046875 1.58203123,-0.046875 0.515625,0 1.3476563,0 1.8398438,0.046875 v -0.5390625 C 2.9306406,-0.57527344 2.7900156,-1.2432422 2.7900156,-1.4893359 c 0,-0.1875 0.046875,-0.2929688 0.082031,-0.4101563 l 1.0898437,-3.0820312 h 5.4140625 l 1.2421882,3.515625 c 0.105468,0.2460937 0.105468,0.2929687 0.105468,0.375 0,0.55078121 -0.8906249,0.55078121 -1.2773437,0.55078121 v 0.5390625 c 0.5976567,-0.046875 1.6640627,-0.046875 2.3085937,-0.046875 0.539063,0 1.570313,0 2.0625,0.046875 v -0.5390625 c -1.089843,0 -1.464843,0 -1.734375,-0.76171871 z m -0.8320312,1.652344 2.53125,7.1015621 H 4.1493906 Z m 10.8193361,-1.722657 -2.460938,0.234375 v 0.539063 c 1.21875,0 1.40625,0.117187 1.40625,1.113281 v 11.0273438 c 0,0.78515626 -0.08203,0.89062501 -1.40625,0.89062501 v 0.5390625 c 0.492188,-0.046875 1.40625,-0.046875 1.921875,-0.046875 0.539063,0 1.441407,0 1.945313,0.046875 v -0.5390625 c -1.324219,0 -1.40625,-0.0820313 -1.40625,-0.89062501 z m 5.194336,1.617188 c 0,-0.457031 -0.363282,-0.84375 -0.84375,-0.84375 -0.457032,0 -0.84375,0.363281 -0.84375,0.84375 0,0.457031 0.363281,0.84375 0.84375,0.84375 0.457031,0 0.84375,-0.363281 0.84375,-0.84375 z m -2.414063,3.9023436 v 0.5390625 c 1.160156,0 1.324219,0.1289062 1.324219,1.1132812 v 5.7421875 c 0,0.78515626 -0.08203,0.89062501 -1.40625,0.89062501 v 0.5390625 c 0.492187,-0.046875 1.382812,-0.046875 1.898437,-0.046875 0.492188,0 1.347657,0 1.816407,0.046875 v -0.5390625 c -1.21875,0 -1.253907,-0.1171875 -1.253907,-0.86718751 v -7.640625 z m 11.578125,1.59375 c -0.386719,0 -0.972656,0 -0.972656,0.7265625 0,0.5742187 0.480469,0.7382812 0.75,0.7382812 0.140625,0 0.738281,-0.058594 0.738281,-0.7851562 0,-1.4648438 -1.40625,-2.578125 -2.988281,-2.578125 -2.191406,0 -4.054688,2.0273437 -4.054688,4.6640625 0,2.7539062 1.945313,4.62890621 4.054688,4.62890621 2.554687,0 3.199219,-2.37890621 3.199219,-2.60156251 0,-0.082031 -0.02344,-0.140625 -0.164063,-0.140625 -0.140625,0 -0.164062,0.011719 -0.246094,0.28125 -0.539062,1.67578126 -1.722656,2.08593751 -2.601562,2.08593751 -1.324219,0 -2.917969,-1.21875001 -2.917969,-4.27734371 0,-3.140625 1.523438,-4.2773438 2.742188,-4.2773438 0.808593,0 2.015625,0.3984375 2.460937,1.5351563 z m 9.064453,2.3789062 c 0.08203,-0.082031 0.08203,-0.1289062 0.08203,-0.3398437 0,-2.0976563 -1.113282,-3.9375 -3.46875,-3.9375 -2.191407,0 -3.925782,2.0859375 -3.925782,4.6289062 0,2.6835938 1.957032,4.66406251 4.148438,4.66406251 2.308594,0 3.222656,-2.19140621 3.222656,-2.62500001 0,-0.140625 -0.128906,-0.140625 -0.164062,-0.140625 -0.140625,0 -0.164063,0.035156 -0.246094,0.2929688 -0.457031,1.39453121 -1.59375,2.09765621 -2.671875,2.09765621 -0.890625,0 -1.769531,-0.4921875 -2.332031,-1.40625001 -0.644532,-1.0429687 -0.644532,-2.2617187 -0.644532,-3.234375 z m -5.976562,-0.3164062 c 0.152344,-2.9765625 1.734375,-3.6328125 2.566406,-3.6328125 1.40625,0 2.355469,1.3242187 2.378906,3.6328125 z m 0,0"
       style="fill:#000000;fill-opacity:1;fill-rule:nonzero;stroke:none"
       aria-label="Alice"
       transform="matrix(1.3333333,0,0,1.3333333,29.334667,23.56)" />
    <path
       id="path5"
       d="M 0.4455,2.4835 C 0.4337812,2.553812 0.398625,2.6358437 0.398625,2.7295937 c 0,0.2109375 0.17578125,0.3515625 0.38671875,0.3515625 C 1.008,3.0811562 1.2072188,2.9405312 1.28925,2.7413125 1.3478438,2.6124062 1.7462813,0.88975 2.2033125,-0.87978125 2.4962813,-0.15321875 3.023625,0.13975 3.586125,0.13975 c 1.6171875,0 3.4570313,-2.0039063 3.4570313,-4.171875 0,-1.5351563 -0.9375,-2.296875 -1.921875,-2.296875 -1.265625,0 -2.8007813,1.3125 -3.2695313,3.2109375 z m 3.1289063,-2.625 c -0.9726563,0 -1.21875,-1.1367188 -1.21875,-1.3125 0,-0.082031 0.3515625,-1.4414063 0.3984375,-1.6640625 0.7265625,-2.8476563 2.1328125,-2.9179688 2.3554687,-2.9179688 0.6445313,0 0.9960938,0.5859375 0.9960938,1.4296875 0,0.7382813 -0.3867188,2.15625 -0.6210938,2.7539063 C 5.0509688,-0.85634375 4.3009688,-0.1415 3.5744063,-0.1415 Z M 14.490422,1.0479531 c 0,-0.0703125 -0.05859,-0.12890623 -0.140625,-0.12890623 -0.128906,0 -0.140625,0.046875 -0.210938,0.28125003 -0.375,1.3125 -0.960937,1.7578125 -1.441406,1.7578125 -0.164062,0 -0.363281,-0.046875 -0.363281,-0.4804688 0,-0.3867187 0.164062,-0.8085937 0.328125,-1.2421875 l 0.996094,-2.671875 c 0.04687,-0.1171875 0.152343,-0.375 0.152343,-0.6445312 0,-0.5976563 -0.433593,-1.1484375 -1.136718,-1.1484375 -1.324219,0 -1.851563,2.0859375 -1.851563,2.1914062 0,0.0585938 0.05859,0.14062502 0.164063,0.14062502 0.128906,0 0.140625,-0.0585938 0.199218,-0.26953122 0.339844,-1.1953125 0.890625,-1.7695313 1.441407,-1.7695313 0.128906,0 0.375,0.011719 0.375,0.46875 0,0.375 -0.1875,0.84375 -0.304688,1.1601563 l -0.996094,2.671875 c -0.09375,0.2226562 -0.175781,0.4570312 -0.175781,0.7148437 0,0.6445313 0.445313,1.1601563 1.136719,1.1601563 1.3125,0 1.828125,-2.0859375 1.828125,-2.1914063 z m -0.105469,-6.9023437 c 0,-0.2109375 -0.175781,-0.46875 -0.492187,-0.46875 -0.328125,0 -0.703125,0.3164062 -0.703125,0.6914062 0,0.3515625 0.304687,0.46875 0.46875,0.46875 0.386718,0 0.726562,-0.375 0.726562,-0.6914062 z m 0,0"
       style="fill:#000000;fill-opacity:1;fill-rule:nonzero;stroke:none"
       aria-label="ρ&#10;i"
       transform="matrix(1.3333333,0,0,1.3333333,197.656,73.938667)" />
    <path
       id="path6"
       d="m 13.618484,-4.7473828 c 0.351563,0 0.726563,0 0.726563,-0.421875 0,-0.4101563 -0.375,-0.4101563 -0.726563,-0.4101563 H 2.4387969 c -0.3515625,0 -0.7265625,0 -0.7265625,0.4101563 0,0.421875 0.375,0.421875 0.7265625,0.421875 z m 16.227539,0 c -1.136718,0.8671875 -1.6875,1.7109375 -1.851562,1.9804687 -0.9375,1.4179688 -1.101563,2.71875004 -1.101563,2.74218754 0,0.24609375 0.246094,0.24609375 0.410157,0.24609375 0.351562,0 0.375,-0.0351563 0.457031,-0.41015625 0.480469,-2.02734374 1.699219,-3.76171874 4.03125,-4.71093754 0.246094,-0.082031 0.316406,-0.1171875 0.316406,-0.2695312 0,-0.140625 -0.128906,-0.1992188 -0.175781,-0.2226563 -0.902344,-0.3515625 -3.398438,-1.3828125 -4.183594,-4.8515629 -0.07031,-0.257812 -0.09375,-0.316406 -0.445312,-0.316406 -0.164063,0 -0.410157,0 -0.410157,0.246094 0,0.04687 0.1875,1.3476562 1.054688,2.7304687 0.410156,0.6210937 1.019531,1.3476562 1.898437,2.0039062 H 14.494461 c -0.363281,0 -0.738281,0 -0.738281,0.4101563 0,0.421875 0.375,0.421875 0.738281,0.421875 z m 0,0"
       style="fill:#000000;fill-opacity:1;fill-rule:nonzero;stroke:none"
       aria-label="−→"
       transform="matrix(1.3333333,0,0,1.3333333,261.53733,75.74)" />
    <path
       id="path7"
       d="m 18.760703,-4.7467266 c 0.375,0 0.738281,0 0.738281,-0.421875 0,-0.4101562 -0.363281,-0.4101562 -0.738281,-0.4101562 H 3.4091406 c 1.1367188,-0.8671875 1.6875,-1.7109375 1.8632813,-1.9804688 0.9257812,-1.4296875 1.0898437,-2.7304684 1.0898437,-2.7539064 0,-0.246094 -0.2460937,-0.246094 -0.4101562,-0.246094 -0.3515625,0 -0.375,0.04687 -0.4570313,0.410157 -0.4804687,2.0273434 -1.6992187,3.7382809 -4.03125,4.7109372 -0.2226562,0.082031 -0.3046875,0.1289062 -0.3046875,0.2695312 0,0.1523438 0.1054688,0.1875 0.3046875,0.2695313 2.15625,0.890625 3.5390625,2.4960937 4.0546875,4.81640624 0.058594,0.24609375 0.082031,0.3046875 0.4335938,0.3046875 0.1640625,0 0.4101562,0 0.4101562,-0.24609375 0,-0.03515625 -0.1875,-1.33593749 -1.0546875,-2.71874999 C 4.8974219,-3.3639141 4.2997656,-4.0904766 3.4091406,-4.7467266 Z m 12.067383,0 c 0.351562,0 0.726562,0 0.726562,-0.421875 0,-0.4101562 -0.375,-0.4101562 -0.726562,-0.4101562 H 19.648398 c -0.351562,0 -0.726562,0 -0.726562,0.4101562 0,0.421875 0.375,0.421875 0.726562,0.421875 z m 0,0"
       style="fill:#000000;fill-opacity:1;fill-rule:nonzero;stroke:none"
       aria-label="←−"
       transform="matrix(1.3333333,0,0,1.3333333,185.94667,113.536)" />
    <path
       id="path8"
       d="m 5.8473359,-2.9533359 c 0,-0.1054688 -0.082031,-0.1875 -0.2109375,-0.1875 -0.1875,0 -0.1992187,0.058594 -0.3046875,0.4101562 -0.5390625,1.88671876 -1.3828125,2.51953126 -2.0625,2.51953126 -0.2578125,0 -0.5390625,-0.0585938 -0.5390625,-0.6796875 0,-0.55078126 0.2460938,-1.17187496 0.46875,-1.79296876 l 1.453125,-3.84375 c 0.058594,-0.1640625 0.1992188,-0.5390625 0.1992188,-0.9257812 0,-0.8671875 -0.6210938,-1.6523438 -1.6289063,-1.6523438 -1.8984375,0 -2.66015621,2.9882813 -2.66015621,3.1523438 0,0.082031 0.0820313,0.1875 0.22265625,0.1875 0.1875,0 0.2109375,-0.082031 0.29296876,-0.375 0.4921875,-1.734375 1.2773437,-2.5546875 2.0859375,-2.5546875 0.1875,0 0.5390625,0.023437 0.5390625,0.6796875 0,0.5390625 -0.2695313,1.21875 -0.4335938,1.6757812 l -1.453125,3.84375 c -0.1171875,0.328125 -0.2460937,0.65625 -0.2460937,1.03125 0,0.92578126 0.6445312,1.67578126 1.6289062,1.67578126 1.8984375,0 2.6484375,-3.02343746 2.6484375,-3.16406246 z M 5.6832734,-12.890836 c 0,-0.316406 -0.2460937,-0.679687 -0.703125,-0.679687 -0.4804687,0 -1.0195312,0.445312 -1.0195312,0.984375 0,0.515625 0.4453125,0.691406 0.6914062,0.691406 0.5507813,0 1.03125,-0.539063 1.03125,-0.996094 z m 0,0"
       style="fill:#000000;fill-opacity:1;fill-rule:nonzero;stroke:none"
       aria-label="i"
       transform="matrix(1.3333333,0,0,1.3333333,279.12933,117.512)" />
    <path
       id="path9"
       d="m 1.0773281,-14.11043 v 0.539063 c 1.4179688,0 1.6523438,0 1.6523438,0.925781 v 11.1796876 c 0,0.92578121 -0.234375,0.92578121 -1.6523438,0.92578121 v 0.5390625 h 7.1015625 c 2.6484374,0 4.3593754,-1.87500001 4.3593754,-3.76171871 0,-1.8632813 -1.6875,-3.4453125 -3.9023441,-3.5976563 1.9804691,-0.3867187 3.3632811,-1.7109375 3.3632811,-3.2812503 0,-1.710937 -1.6875,-3.46875 -4.3593749,-3.46875 z m 2.953125,6.6093753 v -5.2734373 c 0,-0.691406 0.035156,-0.796875 0.8671875,-0.796875 h 2.6367188 c 2.0507812,0 2.9648436,1.652344 2.9648436,2.929687 0,1.5703128 -1.2656249,3.1406253 -3.4921874,3.1406253 z m 0.8671875,6.96093751 c -0.8320312,0 -0.8671875,-0.10546875 -0.8671875,-0.80859371 v -5.8242188 h 3.8203125 c 2.1328125,0 3.1640624,1.8867188 3.1640624,3.3867188 0,1.5117187 -1.1835936,3.24609371 -3.4335936,3.24609371 z M 22.425961,-4.4190234 c 0,-2.6484375 -1.921875,-4.7109375 -4.171875,-4.7109375 -2.25,0 -4.171875,2.0625 -4.171875,4.7109375 0,2.6015625 1.921875,4.58203121 4.171875,4.58203121 2.25,0 4.171875,-1.98046871 4.171875,-4.58203121 z m -4.171875,4.20703121 c -0.972656,0 -1.804688,-0.57421875 -2.273438,-1.38281251 -0.515625,-0.9257812 -0.585937,-2.0859375 -0.585937,-2.9882812 0,-0.8671875 0.04687,-1.9453125 0.585937,-2.8710938 0.410157,-0.6914062 1.21875,-1.3476562 2.273438,-1.3476562 0.925781,0 1.710937,0.515625 2.203125,1.2421875 0.644531,0.9726562 0.644531,2.3320312 0.644531,2.9765625 0,0.796875 -0.04687,2.0390625 -0.597656,3.0351562 -0.574219,0.94921876 -1.464844,1.33593751 -2.25,1.33593751 z M 26.08807,-14.344805 23.638852,-14.11043 v 0.539063 c 1.21875,0 1.40625,0.117187 1.40625,1.113281 v 12.45703131 h 0.363281 l 0.597656,-1.46484371 c 0.609375,0.97265621 1.488281,1.62890621 2.695313,1.62890621 2.0625,0 4.148437,-1.81640621 4.148437,-4.62890621 0,-2.6367188 -1.863281,-4.5820313 -3.949219,-4.5820313 -1.277343,0 -2.191406,0.6796875 -2.8125,1.4882813 z m 0.04687,7.8398441 c 0,-0.375 0,-0.4335938 0.292969,-0.8671875 0.796875,-1.2421875 1.957031,-1.3476563 2.355469,-1.3476563 0.621094,0 2.742187,0.328125 2.742187,4.2304688 0,4.10156246 -2.4375,4.32421871 -2.929687,4.32421871 -0.644531,0 -1.570313,-0.24609375 -2.238281,-1.45312501 -0.222657,-0.3867187 -0.222657,-0.4335937 -0.222657,-0.796875 z m 0,0"
       style="fill:#000000;fill-opacity:1;fill-rule:nonzero;stroke:none"
       aria-label="Bob"
       transform="matrix(1.3333333,0,0,1.3333333,418.212,23.56)" />
    <path
       id="path10"
       d="M 207.04422,42.51141 246.50473,19.73024 V -19.73024 L 207.04422,-42.51141 Z"
       style="fill:none;stroke:#000000;stroke-width:0.3985;stroke-linecap:butt;stroke-linejoin:miter;stroke-miterlimit:10;stroke-dasharray:none;stroke-opacity:1"
       transform="matrix(1.3333333,0,0,-1.3333333,56.958667,89.584)" />
    <path
       id="path11"
       d="M 246.53236,-42.52022 H 331.5728 V 42.52022 H 246.53236 Z"
       style="fill:none;stroke:#000000;stroke-width:0.3985;stroke-linecap:butt;stroke-linejoin:miter;stroke-miterlimit:10;stroke-dasharray:none;stroke-opacity:1"
       transform="matrix(1.3333333,0,0,-1.3333333,56.958667,89.584)" />
    <path
       id="path12"
       d="M 2.4019531,-6.5871172 C 2.3082031,-6.8097734 2.2847656,-6.8097734 2.0503906,-6.8097734 H 0.36289063 v 0.3164062 h 0.24609375 c 0.76171872,0 0.78515622,0.1054688 0.78515622,0.46875 v 4.9804688 c 0,0.26953121 0,0.73828121 -1.03124997,0.73828121 v 0.3046875 c 0.3515625,-0.01171875 0.84374997,-0.03515625 1.17187497,-0.03515625 0.328125,0 0.8203125,0.0234375 1.1601563,0.03515625 v -0.3046875 c -1.0195313,0 -1.0195313,-0.46875 -1.0195313,-0.73828121 v -5.3671875 h 0.011719 l 2.4023437,6.18749996 c 0.046875,0.12890625 0.09375,0.22265625 0.1992188,0.22265625 0.1054687,0 0.1289062,-0.08203125 0.1757812,-0.1875 L 6.9136719,-6.4933672 h 0.011719 v 5.71875001 c 0,0.3515625 -0.023437,0.46875 -0.7851562,0.46875 H 5.8941406 v 0.3046875 c 0.375,-0.03515625 1.0429688,-0.03515625 1.4414063,-0.03515625 0.3867187,0 1.0546875,0 1.4179687,0.03515625 v -0.3046875 h -0.234375 c -0.7734375,0 -0.7851562,-0.1171875 -0.7851562,-0.46875 V -6.0246172 c 0,-0.3632812 0.011719,-0.46875 0.7851562,-0.46875 h 0.234375 V -6.8097734 H 7.0777344 c -0.2695313,0 -0.2695313,0.011719 -0.3398438,0.1992187 l -2.1796875,5.6015625 z m 7.8427739,4.078125 c 0.05859,-1.4882812 0.902343,-1.734375 1.242187,-1.734375 1.019531,0 1.125,1.3476563 1.125,1.734375 z m -0.01172,0.2109375 h 2.789062 c 0.210938,0 0.246094,0 0.246094,-0.2109375 0,-0.984375 -0.539062,-1.9570312 -1.78125,-1.9570312 -1.160156,0 -2.0742187,1.03125 -2.0742187,2.2734375 0,1.33593746 1.0429687,2.29687496 2.1914067,2.29687496 1.21875,0 1.664062,-1.1015625 1.664062,-1.28906246 0,-0.1054688 -0.08203,-0.1171875 -0.128906,-0.1171875 -0.09375,0 -0.117188,0.058594 -0.128906,0.140625 -0.351563,1.01953121 -1.253907,1.01953121 -1.347657,1.01953121 -0.503906,0 -0.902343,-0.29296875 -1.125,-0.66796875 C 10.233008,-1.2902422 10.233008,-1.9464922 10.233007,-2.2980547 Z m 6.644531,1.53515626 c 0.03516,0.3984375 0.304688,0.8203125 0.773438,0.8203125 0.210937,0 0.820312,-0.140625 0.820312,-0.94921875 V -1.4425859 h -0.246094 v 0.55078121 c 0,0.5859375 -0.246093,0.64453125 -0.363281,0.64453125 -0.328125,0 -0.363281,-0.45703125 -0.363281,-0.50390625 V -2.7433672 c 0,-0.4101562 0,-0.8085937 -0.363281,-1.171875 -0.386719,-0.3867187 -0.878907,-0.5507812 -1.359375,-0.5507812 -0.820313,0 -1.511719,0.46875 -1.511719,1.125 0,0.3046875 0.199219,0.46875 0.457031,0.46875 0.28125,0 0.46875,-0.1992188 0.46875,-0.4570313 0,-0.1171875 -0.05859,-0.4453125 -0.515625,-0.4570312 0.269531,-0.3515625 0.761719,-0.4570313 1.078125,-0.4570313 0.492188,0 1.054688,0.3867188 1.054688,1.2773438 v 0.3632812 c -0.503907,0.035156 -1.207032,0.058594 -1.828125,0.3632813 -0.75,0.3398437 -0.996094,0.8554687 -0.996094,1.28906246 0,0.80859375 0.960937,1.0546875 1.59375,1.0546875 0.65625,0 1.113281,-0.3984375 1.300781,-0.8671875 z m -0.07031,-1.62890626 v 0.9960938 c 0,0.94921871 -0.714844,1.28906246 -1.160157,1.28906246 -0.492187,0 -0.902343,-0.3515625 -0.902343,-0.85546875 0,-0.53906251 0.421875,-1.37109371 2.0625,-1.42968751 z m 3.808593,0.4570313 c 0.222657,0.035156 1.03125,0.1992187 1.03125,0.9140625 0,0.51562496 -0.351562,0.91406246 -1.125,0.91406246 -0.832031,0 -1.195312,-0.57421875 -1.382812,-1.41796876 -0.03516,-0.1289062 -0.03516,-0.1757812 -0.140625,-0.1757812 -0.128906,0 -0.128906,0.070312 -0.128906,0.2578125 v 1.31249996 c 0,0.1640625 0,0.234375 0.105468,0.234375 0.05859,0 0.07031,0 0.257813,-0.19921875 0.01172,-0.01171875 0.01172,-0.03515625 0.199219,-0.22265625 0.433593,0.421875 0.878906,0.421875 1.089843,0.421875 1.148438,0 1.605469,-0.66796875 1.605469,-1.38281246 0,-0.5273438 -0.292969,-0.8203125 -0.421875,-0.9492188 -0.328125,-0.3164062 -0.714844,-0.3984375 -1.136719,-0.46875 -0.550781,-0.1171875 -1.21875,-0.2460937 -1.21875,-0.8203125 0,-0.3515625 0.257813,-0.7617187 1.113282,-0.7617187 1.101562,0 1.148437,0.9023437 1.171875,1.2070312 0,0.09375 0.09375,0.09375 0.117187,0.09375 0.128906,0 0.128906,-0.046875 0.128906,-0.2460937 v -0.9960938 c 0,-0.1757812 0,-0.2460937 -0.117187,-0.2460937 -0.04687,0 -0.07031,0 -0.199219,0.1171875 -0.02344,0.046875 -0.128906,0.1289062 -0.164062,0.1640625 -0.375,-0.28125 -0.785157,-0.28125 -0.9375,-0.28125 -1.21875,0 -1.59375,0.6679687 -1.59375,1.2304687 0,0.3398438 0.164062,0.6210938 0.433593,0.84375 0.316407,0.2578125 0.597657,0.3164063 1.3125,0.4570313 z m 5.745118,1.14843746 v 0.890625 l 1.441406,-0.10546875 v -0.3046875 c -0.703125,0 -0.785156,-0.0703125 -0.785156,-0.5625 V -4.4074297 l -1.453125,0.1171875 v 0.3046875 c 0.691406,0 0.773437,0.070312 0.773437,0.5625 v 1.7695313 c 0,0.86718746 -0.480469,1.54687496 -1.207031,1.54687496 -0.832031,0 -0.878906,-0.46875 -0.878906,-0.99609376 v -3.3046875 l -1.464844,0.1171875 v 0.3046875 c 0.785156,0 0.785156,0.035156 0.785156,0.9140625 v 1.5 c 0,0.77343751 0,1.67578126 1.511719,1.67578126 0.550781,0 0.996094,-0.26953125 1.277344,-0.890625 z m 3.307617,-2.51953126 v -1.1015625 l -1.382813,0.1171875 v 0.3046875 c 0.691406,0 0.773438,0.070312 0.773438,0.5625 v 2.66015626 c 0,0.45703125 -0.105469,0.45703125 -0.773438,0.45703125 v 0.3046875 c 0.386719,-0.01171875 0.855469,-0.03515625 1.136719,-0.03515625 0.398437,0 0.867187,0 1.265625,0.03515625 v -0.3046875 h -0.210938 c -0.738281,0 -0.761718,-0.1171875 -0.761718,-0.46875 V -2.3097734 c 0,-0.984375 0.421875,-1.875 1.183593,-1.875 0.05859,0 0.08203,0 0.105469,0.011719 -0.03516,0.011719 -0.234375,0.1289063 -0.234375,0.3867188 0,0.28125 0.210938,0.4335937 0.433594,0.4335937 0.175781,0 0.421875,-0.1289062 0.421875,-0.4453125 0,-0.3164062 -0.304688,-0.609375 -0.726563,-0.609375 -0.738281,0 -1.089843,0.6679688 -1.230468,1.1015622 z m 3.351562,0.796875 c 0.05859,-1.4882812 0.902344,-1.734375 1.242188,-1.734375 1.019531,0 1.125,1.3476563 1.125,1.734375 z m -0.01172,0.2109375 h 2.789063 c 0.210937,0 0.246094,0 0.246094,-0.2109375 0,-0.984375 -0.539063,-1.9570312 -1.78125,-1.9570312 -1.160157,0 -2.074219,1.03125 -2.074219,2.2734375 0,1.33593746 1.042969,2.29687496 2.191406,2.29687496 1.21875,0 1.664063,-1.1015625 1.664063,-1.28906246 0,-0.1054688 -0.08203,-0.1171875 -0.128907,-0.1171875 -0.09375,0 -0.117187,0.058594 -0.128906,0.140625 -0.351562,1.01953121 -1.253906,1.01953121 -1.347656,1.01953121 -0.503906,0 -0.902344,-0.29296875 -1.125,-0.66796875 C 33.008398,-1.2902422 33.008398,-1.9464922 33.008398,-2.2980547 Z m 0,0"
       style="fill:#000000;fill-opacity:1;fill-rule:nonzero;stroke:none"
       aria-label="Measure"
       transform="matrix(1.3333333,0,0,1.3333333,418.13333,94.122667)" />
  </g>
</svg>
